<?xml version="1.0" encoding="utf-8"?>
<!-- Generator: Adobe Illustrator 25.3.0, SVG Export Plug-In . SVG Version: 6.00 Build 0)  -->
<svg version="1.1" id="Capa_1" xmlns="http://www.w3.org/2000/svg" xmlns:xlink="http://www.w3.org/1999/xlink" x="0px" y="0px"
	 viewBox="0 0 512 512" style="enable-background:new 0 0 512 512;" xml:space="preserve">
<style type="text/css">
	.st0{fill:#66FF33;}
</style>
<g id="logo">
	<path class="st0" d="M341.24,44.87l-40.08,69.42h-89.35L173.14,47.3c7.46-7.02,12.12-16.99,12.12-28.05c0-3.42-0.44-6.73-1.29-9.89
		h148.81c-0.84,3.16-1.29,6.47-1.29,9.89C331.49,29.08,335.17,38.06,341.24,44.87z"/>
	<path class="st0" d="M190.19,124.18l-48.03,83.21H65.32c-4.26-13.21-15.47-23.31-29.33-25.97l80.13-138.81
		c7.04,9.21,18.14,15.15,30.62,15.15c1.67,0,3.31-0.1,4.92-0.31L190.19,124.18z"/>
	<path class="st0" d="M477.09,181.6c-13.45,2.92-24.28,12.85-28.44,25.79h-77.83l-48.04-83.21l38.88-67.33
		c2.69,0.6,5.48,0.91,8.34,0.91c11.24,0,21.35-4.81,28.39-12.49L477.09,181.6z"/>
	<path class="st0" d="M477.09,256.85l-77.36,133.99c-7.05-8.58-17.76-14.04-29.73-14.04c-2.16,0-4.27,0.18-6.32,0.52l-38.65-66.94
		l45.8-79.32h77.83C452.81,243.99,463.64,253.94,477.09,256.85z"/>
	<path class="st0" d="M331.49,415.31c0,4.86,0.9,9.49,2.54,13.77H174.36c2.14-4.79,3.32-10.09,3.32-15.68
		c0-8.95-3.06-17.2-8.18-23.74l37.83-65.51h98.32l36.99,64.06C335.74,395.18,331.49,404.74,331.49,415.31z"/>
	<path class="st0" d="M187.95,310.37l-38.12,66.02c-3.39-0.98-6.96-1.5-10.66-1.5c-11.08,0-21.07,4.69-28.1,12.17L36,257.03
		c13.86-2.67,25.07-12.76,29.33-25.97h76.84L187.95,310.37z"/>
	<g id="Circulos">
		<path d="M389.25,19.25c0,5.01-1.92,9.58-5.06,13.01c-3.52,3.84-8.58,6.24-14.19,6.24c-1.43,0-2.83-0.16-4.17-0.45
			c-4.02-0.89-7.57-3.03-10.21-5.99c-3.03-3.4-4.87-7.89-4.87-12.81c0-1.71,0.22-3.37,0.64-4.95C353.56,6.07,361.07,0,370,0
			C380.63,0,389.25,8.62,389.25,19.25z"/>
		<path d="M504.55,219.22c0,5.01-1.92,9.58-5.06,13.01c-3.52,3.84-8.58,6.24-14.19,6.24c-1.43,0-2.83-0.16-4.17-0.45
			c-4.02-0.89-7.57-3.03-10.21-5.99c-3.03-3.4-4.87-7.89-4.87-12.81c0-1.71,0.22-3.37,0.64-4.95c2.18-8.24,9.68-14.31,18.61-14.31
			C495.93,199.97,504.55,208.59,504.55,219.22z"/>
		<path d="M387.36,411.99c0,5.01-1.92,9.58-5.06,13.01c-3.52,3.84-8.58,6.24-14.19,6.24c-1.43,0-2.83-0.16-4.17-0.45
			c-4.02-0.89-7.57-3.03-10.21-5.99c-3.03-3.4-4.87-7.89-4.87-12.81c0-1.71,0.22-3.37,0.64-4.95c2.18-8.24,9.68-14.31,18.61-14.31
			C378.74,392.74,387.36,401.35,387.36,411.99z"/>
		<path d="M160.45,411.04c0,5.01-1.92,9.58-5.06,13.01c-3.52,3.84-8.58,6.24-14.19,6.24c-1.43,0-2.83-0.16-4.17-0.45
			c-4.02-0.89-7.57-3.03-10.21-5.99c-3.03-3.4-4.87-7.89-4.87-12.81c0-1.71,0.22-3.37,0.64-4.95c2.18-8.24,9.68-14.31,18.61-14.31
			C151.83,391.79,160.45,400.41,160.45,411.04z"/>
		<path d="M45.95,219.22c0,5.01-1.92,9.58-5.06,13.01c-3.52,3.84-8.58,6.24-14.19,6.24c-1.43,0-2.83-0.16-4.17-0.45
			c-4.02-0.89-7.57-3.03-10.21-5.99c-3.03-3.4-4.87-7.89-4.87-12.81c0-1.71,0.22-3.37,0.64-4.95c2.18-8.24,9.68-14.31,18.61-14.31
			C37.34,199.97,45.95,208.59,45.95,219.22z"/>
		<path d="M163.63,19.25c0,5.01-1.92,9.58-5.06,13.01c-3.52,3.84-8.58,6.24-14.19,6.24c-1.43,0-2.83-0.16-4.17-0.45
			c-4.02-0.89-7.57-3.03-10.21-5.99c-3.03-3.4-4.87-7.89-4.87-12.81c0-1.71,0.22-3.37,0.64-4.95C127.95,6.07,135.45,0,144.38,0
			C155.01,0,163.63,8.62,163.63,19.25z"/>
	</g>
	<g id="Grafico_central">
		<g>
			<rect x="186.02" y="196.96" width="4.84" height="78.86"/>
			<rect x="205.61" y="182.39" width="4.84" height="78.86"/>
			<rect x="224.92" y="193.05" width="4.84" height="78.86"/>
			<rect x="244.35" y="179.22" width="4.84" height="68.87"/>
			<rect x="263.31" y="163.61" width="4.84" height="96.64"/>
			<rect x="282.63" y="176.92" width="4.84" height="96.64"/>
			<rect x="301.94" y="162.62" width="4.84" height="61.17"/>
			<rect x="321.25" y="172.74" width="4.84" height="57.54"/>
		</g>
		<path class="st0" d="M189.76,266.37h-2.64c-4.59,0-8.34-3.75-8.34-8.34v-43.28c0-4.59,3.75-8.34,8.34-8.34h2.64
			c4.59,0,8.34,3.75,8.34,8.34v43.28C198.1,262.62,194.35,266.37,189.76,266.37z"/>
		<path class="st0" d="M209.35,251.8h-2.64c-4.59,0-8.34-3.75-8.34-8.34v-43.28c0-4.59,3.75-8.34,8.34-8.34h2.64
			c4.59,0,8.34,3.75,8.34,8.34v43.28C217.68,248.05,213.93,251.8,209.35,251.8z"/>
		<path class="st0" d="M228.66,262.46h-2.64c-4.59,0-8.34-3.75-8.34-8.34v-43.28c0-4.59,3.75-8.34,8.34-8.34h2.64
			c4.59,0,8.34,3.75,8.34,8.34v43.28C237,258.71,233.25,262.46,228.66,262.46z"/>
		<path class="st0" d="M248.09,243.2h-2.64c-4.59,0-8.34-3.75-8.34-8.34v-42.18c0-4.59,3.75-8.34,8.34-8.34h2.64
			c4.59,0,8.34,3.75,8.34,8.34v42.18C256.42,239.45,252.67,243.2,248.09,243.2z"/>
		<path class="st0" d="M267.05,251.8h-2.64c-4.59,0-8.34-3.75-8.34-8.34v-61.8c0-4.59,3.75-8.34,8.34-8.34h2.64
			c4.59,0,8.34,3.75,8.34,8.34v61.8C275.39,248.05,271.64,251.8,267.05,251.8z"/>
		<path class="st0" d="M286.36,263.03h-2.64c-4.59,0-8.34-3.75-8.34-8.34v-61.8c0-4.59,3.75-8.34,8.34-8.34h2.64
			c4.59,0,8.34,3.75,8.34,8.34v61.8C294.7,259.28,290.95,263.03,286.36,263.03z"/>
		<path class="st0" d="M324.88,223.79h-2.64c-4.59,0-8.34-3.75-8.34-8.34v-27.9c0-4.59,3.75-8.34,8.34-8.34h2.64
			c4.59,0,8.34,3.75,8.34,8.34v27.9C333.21,220.04,329.46,223.79,324.88,223.79z"/>
		<path class="st0" d="M305.68,217.03h-2.64c-4.59,0-8.34-3.75-8.34-8.34v-27.04c0-4.59,3.75-8.34,8.34-8.34h2.64
			c4.59,0,8.34,3.75,8.34,8.34v27.04C314.01,213.28,310.26,217.03,305.68,217.03z"/>
	</g>
</g>
<g>
	<path d="M113.72,510.56v-0.85c2.39,0,4.24-0.68,5.55-2.03c0.73-0.76,1.24-1.73,1.51-2.9c0.27-1.17,0.41-2.97,0.41-5.39v-26.21
		c0-2.51-0.15-4.37-0.44-5.57c-0.3-1.2-0.85-2.18-1.65-2.93c-0.66-0.62-1.4-1.07-2.22-1.35c-0.82-0.28-1.87-0.45-3.15-0.5v-0.82
		h22.73v0.82c-1.3,0.07-2.37,0.25-3.2,0.53c-0.83,0.28-1.56,0.74-2.21,1.35c-0.81,0.78-1.35,1.77-1.64,2.95
		c-0.28,1.19-0.43,3.02-0.43,5.51v20.52c0,3.15,0.08,5.5,0.25,7.04c0.17,1.54,0.49,2.8,0.96,3.77c0.83,1.71,2.06,2.96,3.7,3.75
		c1.64,0.8,3.81,1.19,6.51,1.19c2.82,0,5.2-0.37,7.13-1.12c1.93-0.75,3.52-1.9,4.75-3.47c0.83-1.07,1.51-2.28,2.05-3.63
		c0.53-1.35,1.02-3.13,1.48-5.33l0.85,0.07l-0.46,14.58H113.72z"/>
	<path d="M157.74,481.08l10.24-1.28v20.48l0.04,2.69c0,1.61,0.09,2.78,0.28,3.53c0.19,0.75,0.56,1.37,1.1,1.86
		c0.66,0.64,1.89,1.12,3.66,1.45v0.75h-15.72v-0.75c1.42-0.19,2.44-0.45,3.06-0.8c0.62-0.34,1.11-0.93,1.49-1.75
		c0.26-0.54,0.44-1.36,0.55-2.46c0.11-1.1,0.16-2.68,0.16-4.76v-8.74c0-2.43-0.06-4.13-0.18-5.11c-0.12-0.98-0.38-1.77-0.78-2.39
		c-0.4-0.66-0.89-1.14-1.46-1.43c-0.57-0.29-1.39-0.48-2.45-0.55V481.08z M165.16,467.03c-0.93,0-1.7-0.3-2.31-0.89
		c-0.61-0.59-0.91-1.34-0.91-2.24c0-0.88,0.31-1.62,0.93-2.22c0.62-0.6,1.38-0.91,2.29-0.91c0.91,0,1.67,0.3,2.29,0.91
		c0.62,0.61,0.93,1.35,0.93,2.22c0,0.9-0.3,1.65-0.91,2.24C166.86,466.74,166.09,467.03,165.16,467.03z"/>
	<path d="M176.2,495.56c0-3.84,1.42-7.27,4.27-10.28c3.46-3.65,7.6-5.48,12.41-5.48c4.81,0,8.94,1.83,12.38,5.48
		c2.85,3.03,4.27,6.47,4.27,10.31c0,3.79-1.35,7.17-4.05,10.14c-3.32,3.65-7.52,5.48-12.59,5.48c-5.07,0-9.28-1.83-12.63-5.48
		c-1.3-1.42-2.31-3.01-3-4.77C176.55,499.21,176.2,497.4,176.2,495.56z M182.67,495.15c0,4.12,0.92,7.61,2.77,10.48
		c2.09,3.2,4.63,4.8,7.65,4.8c1.28,0,2.53-0.36,3.73-1.06c1.21-0.71,2.25-1.71,3.13-2.99c0.92-1.33,1.67-2.99,2.24-4.99
		c0.57-2,0.85-3.94,0.85-5.81c0-1.94-0.3-3.9-0.91-5.88c-0.6-1.98-1.42-3.68-2.44-5.1c-1.94-2.68-4.33-4.01-7.15-4.01
		c-2.68,0-4.99,1.41-6.94,4.23C183.66,487.63,182.67,491.07,182.67,495.15z"/>
	<path d="M223.11,484.28c0.99-1.23,1.94-2.14,2.84-2.74c1.82-1.16,4-1.74,6.53-1.74c3.6,0,6.73,1.15,9.41,3.45
		c3.31,2.82,4.97,6.8,4.97,11.94c0,5.14-1.59,9.19-4.77,12.15c-2.75,2.58-6.27,3.87-10.56,3.87c-2.25,0-4.16-0.31-5.73-0.92
		l-1.99-0.82c-0.55-0.21-1.03-0.32-1.46-0.32c-1.21,0-2.28,0.98-3.2,2.95h-1.42v-41.72c0-2.65-0.42-4.56-1.26-5.71
		c-0.84-1.15-2.26-1.73-4.25-1.73v-0.85l10.88-1.49V484.28z M223.11,495.04c0,2.53,0.14,4.87,0.42,7c0.28,2.13,0.65,3.68,1.1,4.65
		c0.54,1.16,1.35,2.07,2.43,2.74c1.07,0.66,2.3,0.99,3.67,0.99c2.88,0,5.26-1.37,7.14-4.12c1.88-2.75,2.82-6.24,2.82-10.48
		c0-2.23-0.31-4.34-0.92-6.34c-0.61-2-1.49-3.7-2.62-5.1c-0.9-1.16-1.89-2.04-2.98-2.65c-1.09-0.6-2.2-0.91-3.33-0.91
		c-1.37,0-2.65,0.42-3.83,1.26c-1.18,0.84-2.05,1.94-2.62,3.28C223.54,487.37,223.11,490.59,223.11,495.04z"/>
	<path d="M280.44,507.11l0.6,0.36c-0.85,2.49-2.81,3.73-5.87,3.73c-1.69,0-3.09-0.42-4.2-1.24c-0.74-0.55-1.5-1.49-2.28-2.85
		c-1.59,1.42-2.79,2.36-3.6,2.81c-1.54,0.85-3.34,1.28-5.38,1.28c-2.61,0-4.68-0.63-6.22-1.88c-1.53-1.26-2.3-2.95-2.3-5.09
		c0-1.97,0.63-3.62,1.88-4.94c0.71-0.73,1.53-1.32,2.45-1.76c0.92-0.44,2.26-0.88,4.02-1.33c2.06-0.52,3.59-0.96,4.57-1.32
		c0.98-0.36,1.81-0.78,2.47-1.28c0.76-0.55,1.28-1.19,1.56-1.92c0.28-0.73,0.43-1.75,0.43-3.06c0-2.77-0.52-4.8-1.56-6.08
		c-0.48-0.59-1.08-1.07-1.83-1.42c-0.75-0.36-1.52-0.53-2.33-0.53c-0.97,0-1.84,0.25-2.6,0.75c-0.76,0.5-1.33,1.19-1.71,2.06
		l-0.89,2.06c-0.48,1.12-1.33,1.67-2.56,1.67c-0.81,0-1.48-0.27-2.03-0.8c-0.55-0.53-0.82-1.2-0.82-2.01c0-1.21,0.85-2.23,2.56-3.06
		c0.93-0.43,2.07-0.78,3.44-1.05c1.37-0.27,2.7-0.41,4.01-0.41c1.47,0,3,0.19,4.6,0.57c1.59,0.38,2.92,0.87,3.99,1.46
		c1.54,0.88,2.51,2.02,2.89,3.41c0.19,0.71,0.29,1.91,0.29,3.59v13.16c0,2.23,0.09,3.75,0.28,4.55c0.4,1.68,1.37,2.53,2.92,2.53
		c0.74,0,1.31-0.13,1.73-0.39S279.87,507.9,280.44,507.11z M268.67,493.1c-1.28,1.07-2.68,2-4.22,2.81
		c-1.73,0.92-2.92,1.62-3.58,2.1s-1.26,1.04-1.81,1.71c-1.11,1.38-1.67,2.97-1.67,4.8c0,1.57,0.43,2.86,1.29,3.88
		c0.86,1.02,1.96,1.53,3.28,1.53c1.16,0,2.25-0.36,3.28-1.08c1.03-0.72,1.8-1.69,2.32-2.9c0.73-1.59,1.1-3.89,1.1-6.9V493.1z"/>
	<path d="M291.25,485.27c0.85-1.49,1.81-2.62,2.88-3.38c1.97-1.4,4.21-2.1,6.72-2.1c1.54,0,2.71,0.34,3.52,1.03
		c0.74,0.62,1.1,1.37,1.1,2.27c0,0.66-0.22,1.21-0.66,1.63c-0.44,0.43-1,0.64-1.69,0.64c-0.81,0-1.51-0.33-2.1-0.99l-1.1-1.21
		c-0.88-0.92-1.91-1.38-3.09-1.38c-1.61,0-2.87,1.04-3.77,3.13c-0.9,2.08-1.35,4.99-1.35,8.7v6.64l0.04,2.7
		c0,1.61,0.1,2.79,0.29,3.53c0.19,0.75,0.56,1.37,1.1,1.86c0.66,0.64,1.89,1.13,3.66,1.46v0.75h-15.72v-0.75
		c1.42-0.19,2.44-0.45,3.06-0.8c0.62-0.34,1.11-0.93,1.49-1.75c0.26-0.54,0.44-1.36,0.55-2.46c0.11-1.1,0.16-2.68,0.16-4.76v-8.74
		c0-2.43-0.06-4.13-0.18-5.11c-0.12-0.98-0.38-1.77-0.78-2.39c-0.4-0.66-0.89-1.14-1.46-1.43c-0.57-0.29-1.39-0.48-2.45-0.55v-0.75
		l9.17-1.28C291.05,481.93,291.25,483.75,291.25,485.27z"/>
	<path d="M315.61,480.33h9.03v1.35h-9.03v20.7c0,2.49,0.43,4.27,1.28,5.33c0.45,0.59,1.04,1.06,1.77,1.39
		c0.73,0.33,1.52,0.5,2.38,0.5c1.06,0,1.95-0.22,2.66-0.66c0.71-0.44,1.49-1.24,2.34-2.4l0.53,0.46c-0.78,1.42-1.88,2.48-3.29,3.16
		c-1.41,0.69-3.17,1.03-5.28,1.03c-2.8,0-4.84-0.55-6.12-1.64c-0.69-0.57-1.14-1.25-1.35-2.05c-0.21-0.79-0.32-2.22-0.32-4.29
		v-21.55h-3.81v-0.57c1.54-0.5,2.96-1.46,4.27-2.88c0.79-0.88,1.42-1.75,1.9-2.61c0.48-0.87,0.93-1.99,1.36-3.36l0.36-1.17h1.32
		V480.33z"/>
	<path d="M326.5,495.56c0-3.84,1.42-7.27,4.27-10.28c3.46-3.65,7.6-5.48,12.41-5.48s8.94,1.83,12.38,5.48
		c2.84,3.03,4.27,6.47,4.27,10.31c0,3.79-1.35,7.17-4.05,10.14c-3.32,3.65-7.52,5.48-12.59,5.48c-5.07,0-9.28-1.83-12.62-5.48
		c-1.3-1.42-2.31-3.01-3.01-4.77C326.85,499.21,326.5,497.4,326.5,495.56z M332.97,495.15c0,4.12,0.92,7.61,2.77,10.48
		c2.09,3.2,4.64,4.8,7.65,4.8c1.28,0,2.52-0.36,3.73-1.06c1.21-0.71,2.25-1.71,3.13-2.99c0.92-1.33,1.67-2.99,2.24-4.99
		c0.57-2,0.85-3.94,0.85-5.81c0-1.94-0.3-3.9-0.91-5.88c-0.61-1.98-1.42-3.68-2.44-5.1c-1.94-2.68-4.33-4.01-7.15-4.01
		c-2.68,0-4.99,1.41-6.93,4.23C333.95,487.63,332.97,491.07,332.97,495.15z"/>
	<path d="M373.12,479.8c0.33,1.38,0.5,2.67,0.5,3.86v0.57c2.94-2.95,6.44-4.43,10.49-4.43c3.03,0,5.48,0.71,7.33,2.13
		c1.83,1.4,2.74,3.39,2.74,5.97v15.06c0,1.61,0.1,2.79,0.29,3.53c0.19,0.75,0.56,1.37,1.1,1.86c0.66,0.64,1.89,1.13,3.66,1.46v0.75
		h-15.72v-0.75c1.42-0.19,2.44-0.46,3.06-0.8c0.62-0.34,1.11-0.93,1.49-1.76c0.26-0.54,0.44-1.37,0.55-2.47
		c0.11-1.1,0.16-2.68,0.16-4.74v-7.53c0-2.58-0.09-4.47-0.27-5.68c-0.18-1.21-0.51-2.18-1.01-2.91c-0.54-0.83-1.32-1.47-2.34-1.94
		c-1.02-0.46-2.14-0.69-3.37-0.69c-1.32,0-2.56,0.26-3.71,0.78c-1.15,0.52-2.05,1.23-2.71,2.13c-0.71,0.95-1.18,2.02-1.4,3.21
		c-0.22,1.2-0.34,3.18-0.34,5.95v6.96l0.04,2.63c0,1.61,0.1,2.79,0.29,3.53c0.19,0.75,0.56,1.37,1.1,1.86
		c0.66,0.64,1.89,1.13,3.66,1.46v0.75h-15.72v-0.75c1.42-0.19,2.44-0.45,3.06-0.8c0.62-0.34,1.11-0.93,1.49-1.75
		c0.26-0.54,0.44-1.36,0.55-2.46c0.11-1.1,0.16-2.68,0.16-4.76v-8.74c0-2.43-0.06-4.13-0.18-5.11c-0.12-0.98-0.38-1.77-0.78-2.39
		c-0.4-0.66-0.89-1.14-1.46-1.43c-0.57-0.29-1.39-0.48-2.45-0.55v-0.75L373.12,479.8z"/>
</g>
</svg>
